<?xml version="1.0" encoding="UTF-8" standalone="no"?>
<!DOCTYPE svg PUBLIC "-//W3C//DTD SVG 1.1//EN"
 "http://www.w3.org/Graphics/SVG/1.1/DTD/svg11.dtd">
<!-- Generated by graphviz version 2.50.0 (0)
 -->
<!-- Title: createtaxdb_dag Pages: 1 -->
<svg width="936pt" height="802pt"
 viewBox="0.00 0.00 936.27 802.45" xmlns="http://www.w3.org/2000/svg" xmlns:xlink="http://www.w3.org/1999/xlink">
<g id="graph0" class="graph" transform="scale(1 1) rotate(0) translate(4 798.45)">
<title>createtaxdb_dag</title>
<polygon fill="white" stroke="transparent" points="-4,4 -4,-798.45 932.27,-798.45 932.27,4 -4,4"/>
<!-- v0 -->
<g id="node1" class="node">
<title>v0</title>
<ellipse fill="black" stroke="black" stroke-width="2" cx="346.06" cy="-686.5" rx="3.6" ry="3.6"/>
<text text-anchor="middle" x="303.96" y="-693.1" font-family="sans" font-size="10.00">Channel.fromPath</text>
</g>
<!-- v31 -->
<g id="node2" class="node">
<title>v31</title>
<ellipse fill="none" stroke="black" stroke-width="2" cx="417.06" cy="-640.71" rx="3.5" ry="3.5"/>
<text text-anchor="middle" x="401.56" y="-647.21" font-family="sans" font-size="10.00">toList</text>
</g>
<!-- v0&#45;&gt;v31 -->
<g id="edge1" class="edge">
<title>v0&#45;&gt;v31</title>
<path fill="none" stroke="grey" stroke-width="2" d="M349.11,-684.53C358.69,-678.35 388.53,-659.11 405.31,-648.29"/>
<polygon fill="grey" stroke="grey" stroke-width="2" points="407.59,-650.98 414.1,-642.62 403.8,-645.1 407.59,-650.98"/>
<text text-anchor="middle" x="338.71" y="-669.41" font-family="sans" font-size="10.00">ch_multiqc_config</text>
</g>
<!-- v34 -->
<g id="node35" class="node">
<title>v34</title>
<path fill="none" stroke="#f71f75" stroke-width="2" d="M607.7,-633.3C607.7,-633.3 398.7,-633.3 398.7,-633.3 392.7,-633.3 386.7,-627.3 386.7,-621.3 386.7,-621.3 386.7,-609.3 386.7,-609.3 386.7,-603.3 392.7,-597.3 398.7,-597.3 398.7,-597.3 607.7,-597.3 607.7,-597.3 613.7,-597.3 619.7,-603.3 619.7,-609.3 619.7,-609.3 619.7,-621.3 619.7,-621.3 619.7,-627.3 613.7,-633.3 607.7,-633.3"/>
<text text-anchor="middle" x="503.2" y="-612.8" font-family="sans" font-size="10.00">NFCORE_CREATETAXDB:CREATETAXDB:MULTIQC</text>
</g>
<!-- v31&#45;&gt;v34 -->
<g id="edge34" class="edge">
<title>v31&#45;&gt;v34</title>
<path fill="none" stroke="grey" stroke-width="2" d="M420.76,-639.62C423.39,-638.85 427.28,-637.7 431.96,-636.32"/>
<polygon fill="grey" stroke="grey" stroke-width="2" points="433.2,-639.6 441.8,-633.41 431.22,-632.89 433.2,-639.6"/>
</g>
<!-- v1 -->
<g id="node3" class="node">
<title>v1</title>
<ellipse fill="black" stroke="black" stroke-width="2" cx="553.18" cy="-779.85" rx="3.6" ry="3.6"/>
<text text-anchor="middle" x="517.08" y="-786.45" font-family="sans" font-size="10.00">Channel.empty</text>
</g>
<!-- v32 -->
<g id="node4" class="node">
<title>v32</title>
<ellipse fill="none" stroke="black" stroke-width="2" cx="525.64" cy="-701.62" rx="3.5" ry="3.5"/>
<text text-anchor="middle" x="510.14" y="-708.12" font-family="sans" font-size="10.00">toList</text>
</g>
<!-- v1&#45;&gt;v32 -->
<g id="edge2" class="edge">
<title>v1&#45;&gt;v32</title>
<path fill="none" stroke="grey" stroke-width="2" d="M551.85,-776.08C548.01,-765.16 536.75,-733.17 530.3,-714.87"/>
<polygon fill="grey" stroke="grey" stroke-width="2" points="533.52,-713.45 526.89,-705.18 526.91,-715.77 533.52,-713.45"/>
<text text-anchor="middle" x="484.58" y="-748.47" font-family="sans" font-size="10.00">ch_multiqc_custom_config</text>
</g>
<!-- v32&#45;&gt;v34 -->
<g id="edge35" class="edge">
<title>v32&#45;&gt;v34</title>
<path fill="none" stroke="grey" stroke-width="2" d="M524.68,-697.92C522.26,-688.63 515.78,-663.67 510.56,-643.6"/>
<polygon fill="grey" stroke="grey" stroke-width="2" points="513.88,-642.46 507.97,-633.66 507.1,-644.22 513.88,-642.46"/>
</g>
<!-- v2 -->
<g id="node5" class="node">
<title>v2</title>
<ellipse fill="black" stroke="black" stroke-width="2" cx="423.09" cy="-764.03" rx="3.6" ry="3.6"/>
<text text-anchor="middle" x="386.99" y="-770.63" font-family="sans" font-size="10.00">Channel.empty</text>
</g>
<!-- v33 -->
<g id="node6" class="node">
<title>v33</title>
<ellipse fill="none" stroke="black" stroke-width="2" cx="458.31" cy="-686.99" rx="3.5" ry="3.5"/>
<text text-anchor="middle" x="442.81" y="-693.49" font-family="sans" font-size="10.00">toList</text>
</g>
<!-- v2&#45;&gt;v33 -->
<g id="edge3" class="edge">
<title>v2&#45;&gt;v33</title>
<path fill="none" stroke="grey" stroke-width="2" d="M424.6,-760.72C429.38,-750.27 444.3,-717.63 452.6,-699.48"/>
<polygon fill="grey" stroke="grey" stroke-width="2" points="455.87,-700.75 456.84,-690.2 449.5,-697.84 455.87,-700.75"/>
<text text-anchor="middle" x="403.6" y="-733.1" font-family="sans" font-size="10.00">ch_multiqc_logo</text>
</g>
<!-- v33&#45;&gt;v34 -->
<g id="edge36" class="edge">
<title>v33&#45;&gt;v34</title>
<path fill="none" stroke="grey" stroke-width="2" d="M460.24,-683.91C464.77,-676.67 476.47,-657.99 486.52,-641.94"/>
<polygon fill="grey" stroke="grey" stroke-width="2" points="489.53,-643.72 491.87,-633.39 483.6,-640.01 489.53,-643.72"/>
</g>
<!-- v3 -->
<g id="node7" class="node">
<title>v3</title>
<ellipse fill="black" stroke="black" stroke-width="2" cx="252.03" cy="-3.6" rx="3.6" ry="3.6"/>
<text text-anchor="middle" x="215.93" y="-10.2" font-family="sans" font-size="10.00">Channel.empty</text>
</g>
<!-- v8 -->
<g id="node8" class="node">
<title>v8</title>
<ellipse fill="none" stroke="black" stroke-width="2" cx="257.97" cy="-84.81" rx="3.5" ry="3.5"/>
<text text-anchor="middle" x="246.47" y="-91.31" font-family="sans" font-size="10.00">mix</text>
</g>
<!-- v3&#45;&gt;v8 -->
<g id="edge4" class="edge">
<title>v3&#45;&gt;v8</title>
<path fill="none" stroke="grey" stroke-width="2" d="M252.32,-7.52C253.15,-18.85 255.58,-52.07 256.97,-71.07"/>
<polygon fill="grey" stroke="grey" stroke-width="2" points="253.48,-71.41 257.7,-81.12 260.46,-70.89 253.48,-71.41"/>
<text text-anchor="middle" x="228.64" y="-42.29" font-family="sans" font-size="10.00">ch_versions</text>
</g>
<!-- v12 -->
<g id="node14" class="node">
<title>v12</title>
<ellipse fill="none" stroke="black" stroke-width="2" cx="325.84" cy="-136.28" rx="3.5" ry="3.5"/>
<text text-anchor="middle" x="314.34" y="-142.78" font-family="sans" font-size="10.00">mix</text>
</g>
<!-- v8&#45;&gt;v12 -->
<g id="edge10" class="edge">
<title>v8&#45;&gt;v12</title>
<path fill="none" stroke="grey" stroke-width="2" d="M260.89,-87.03C270.05,-93.97 298.57,-115.6 314.6,-127.76"/>
<polygon fill="grey" stroke="grey" stroke-width="2" points="312.93,-130.88 323.01,-134.14 317.16,-125.3 312.93,-130.88"/>
<text text-anchor="middle" x="313.75" y="-99.39" font-family="sans" font-size="10.00">ch_versions</text>
</g>
<!-- v4 -->
<g id="node9" class="node">
<title>v4</title>
<ellipse fill="black" stroke="black" stroke-width="2" cx="110.6" cy="-78.56" rx="3.6" ry="3.6"/>
</g>
<!-- v5 -->
<g id="node10" class="node">
<title>v5</title>
<path fill="none" stroke="#511039" stroke-width="2" d="M347,-136.54C347,-136.54 12,-136.54 12,-136.54 6,-136.54 0,-130.54 0,-124.54 0,-124.54 0,-112.54 0,-112.54 0,-106.54 6,-100.54 12,-100.54 12,-100.54 347,-100.54 347,-100.54 353,-100.54 359,-106.54 359,-112.54 359,-112.54 359,-124.54 359,-124.54 359,-130.54 353,-136.54 347,-136.54"/>
<text text-anchor="middle" x="179.5" y="-116.04" font-family="sans" font-size="10.00">NFCORE_CREATETAXDB:CREATETAXDB:INPUT_CHECK:SAMPLESHEET_CHECK</text>
</g>
<!-- v4&#45;&gt;v5 -->
<g id="edge5" class="edge">
<title>v4&#45;&gt;v5</title>
<path fill="none" stroke="grey" stroke-width="2" d="M113.92,-80.49C118.93,-83.39 128.97,-89.22 139.72,-95.46"/>
<polygon fill="grey" stroke="grey" stroke-width="2" points="138,-98.51 148.41,-100.5 141.51,-92.45 138,-98.51"/>
<text text-anchor="middle" x="99.32" y="-90.97" font-family="sans" font-size="10.00">samplesheet</text>
</g>
<!-- v5&#45;&gt;v8 -->
<g id="edge7" class="edge">
<title>v5&#45;&gt;v8</title>
<path fill="none" stroke="grey" stroke-width="2" d="M221.49,-100.49C230.06,-96.81 238.44,-93.21 245.01,-90.38"/>
<polygon fill="grey" stroke="grey" stroke-width="2" points="246.71,-93.46 254.52,-86.3 243.95,-87.03 246.71,-93.46"/>
<text text-anchor="middle" x="214.75" y="-87.44" font-family="sans" font-size="10.00">versions</text>
</g>
<!-- v6 -->
<g id="node11" class="node">
<title>v6</title>
<ellipse fill="none" stroke="black" stroke-width="2" cx="166.26" cy="-202.32" rx="3.5" ry="3.5"/>
<text text-anchor="middle" x="145.76" y="-208.82" font-family="sans" font-size="10.00">splitCsv</text>
</g>
<!-- v5&#45;&gt;v6 -->
<g id="edge6" class="edge">
<title>v5&#45;&gt;v6</title>
<path fill="none" stroke="grey" stroke-width="2" d="M176.63,-136.72C174.16,-152.35 170.65,-174.56 168.41,-188.7"/>
<polygon fill="grey" stroke="grey" stroke-width="2" points="164.94,-188.26 166.83,-198.69 171.85,-189.35 164.94,-188.26"/>
</g>
<!-- v7 -->
<g id="node12" class="node">
<title>v7</title>
<ellipse fill="none" stroke="black" stroke-width="2" cx="211.89" cy="-270.21" rx="3.5" ry="3.5"/>
<text text-anchor="middle" x="198.89" y="-269.71" font-family="sans" font-size="10.00">map</text>
</g>
<!-- v6&#45;&gt;v7 -->
<g id="edge8" class="edge">
<title>v6&#45;&gt;v7</title>
<path fill="none" stroke="grey" stroke-width="2" d="M168.22,-205.24C174.32,-214.32 193.21,-242.42 204.04,-258.54"/>
<polygon fill="grey" stroke="grey" stroke-width="2" points="201.3,-260.73 209.78,-267.08 207.11,-256.82 201.3,-260.73"/>
</g>
<!-- v9 -->
<g id="node13" class="node">
<title>v9</title>
<path fill="none" stroke="#57192e" stroke-width="2" d="M392.44,-319.9C392.44,-319.9 188.44,-319.9 188.44,-319.9 182.44,-319.9 176.44,-313.9 176.44,-307.9 176.44,-307.9 176.44,-295.9 176.44,-295.9 176.44,-289.9 182.44,-283.9 188.44,-283.9 188.44,-283.9 392.44,-283.9 392.44,-283.9 398.44,-283.9 404.44,-289.9 404.44,-295.9 404.44,-295.9 404.44,-307.9 404.44,-307.9 404.44,-313.9 398.44,-319.9 392.44,-319.9"/>
<text text-anchor="middle" x="290.44" y="-299.4" font-family="sans" font-size="10.00">NFCORE_CREATETAXDB:CREATETAXDB:FASTQC</text>
</g>
<!-- v7&#45;&gt;v9 -->
<g id="edge9" class="edge">
<title>v7&#45;&gt;v9</title>
<path fill="none" stroke="grey" stroke-width="2" d="M215.27,-271.58C219.49,-273.28 227.29,-276.43 236.31,-280.07"/>
<polygon fill="grey" stroke="grey" stroke-width="2" points="235.08,-283.34 245.66,-283.84 237.69,-276.85 235.08,-283.34"/>
<text text-anchor="middle" x="238.29" y="-267.82" font-family="sans" font-size="10.00">reads</text>
</g>
<!-- v10 -->
<g id="node15" class="node">
<title>v10</title>
<ellipse fill="black" stroke="black" stroke-width="2" cx="225.24" cy="-354.08" rx="1.8" ry="1.8"/>
</g>
<!-- v9&#45;&gt;v10 -->
<g id="edge11" class="edge">
<title>v9&#45;&gt;v10</title>
<path fill="none" stroke="grey" stroke-width="2" d="M267.64,-320.15C256.36,-329.18 243.35,-339.58 234.75,-346.47"/>
<polygon fill="grey" stroke="grey" stroke-width="2" points="232.48,-343.8 226.86,-352.78 236.85,-349.27 232.48,-343.8"/>
</g>
<!-- v27 -->
<g id="node16" class="node">
<title>v27</title>
<ellipse fill="none" stroke="black" stroke-width="2" cx="358.99" cy="-356.18" rx="3.5" ry="3.5"/>
<text text-anchor="middle" x="341.49" y="-362.68" font-family="sans" font-size="10.00">collect</text>
</g>
<!-- v9&#45;&gt;v27 -->
<g id="edge12" class="edge">
<title>v9&#45;&gt;v27</title>
<path fill="none" stroke="grey" stroke-width="2" d="M313.27,-319.98C324.94,-329.22 338.61,-340.04 347.94,-347.43"/>
<polygon fill="grey" stroke="grey" stroke-width="2" points="346.05,-350.4 356.06,-353.87 350.4,-344.91 346.05,-350.4"/>
</g>
<!-- v11 -->
<g id="node17" class="node">
<title>v11</title>
<ellipse fill="none" stroke="black" stroke-width="2" cx="309.16" cy="-219.83" rx="3.5" ry="3.5"/>
<text text-anchor="middle" x="297.16" y="-226.33" font-family="sans" font-size="10.00">first</text>
</g>
<!-- v9&#45;&gt;v11 -->
<g id="edge13" class="edge">
<title>v9&#45;&gt;v11</title>
<path fill="none" stroke="grey" stroke-width="2" d="M294.6,-283.69C298.06,-268.5 302.92,-247.2 306.05,-233.46"/>
<polygon fill="grey" stroke="grey" stroke-width="2" points="309.55,-233.88 308.36,-223.35 302.72,-232.32 309.55,-233.88"/>
</g>
<!-- v13 -->
<g id="node18" class="node">
<title>v13</title>
<ellipse fill="none" stroke="black" stroke-width="2" cx="406.86" cy="-116.75" rx="3.5" ry="3.5"/>
<text text-anchor="middle" x="388.86" y="-116.25" font-family="sans" font-size="10.00">unique</text>
</g>
<!-- v12&#45;&gt;v13 -->
<g id="edge15" class="edge">
<title>v12&#45;&gt;v13</title>
<path fill="none" stroke="grey" stroke-width="2" d="M329.32,-135.44C340.2,-132.82 374.01,-124.67 393.2,-120.04"/>
<polygon fill="grey" stroke="grey" stroke-width="2" points="394.22,-123.4 403.12,-117.65 392.58,-116.59 394.22,-123.4"/>
<text text-anchor="middle" x="387.26" y="-130.74" font-family="sans" font-size="10.00">ch_versions</text>
</g>
<!-- v28 -->
<g id="node33" class="node">
<title>v28</title>
<ellipse fill="none" stroke="black" stroke-width="2" cx="437.84" cy="-394.96" rx="3.5" ry="3.5"/>
<text text-anchor="middle" x="417.84" y="-401.46" font-family="sans" font-size="10.00">ifEmpty</text>
</g>
<!-- v27&#45;&gt;v28 -->
<g id="edge30" class="edge">
<title>v27&#45;&gt;v28</title>
<path fill="none" stroke="grey" stroke-width="2" d="M362.38,-357.85C373.17,-363.16 407.11,-379.84 425.57,-388.93"/>
<polygon fill="grey" stroke="grey" stroke-width="2" points="424.03,-392.07 434.55,-393.34 427.12,-385.79 424.03,-392.07"/>
</g>
<!-- v11&#45;&gt;v12 -->
<g id="edge14" class="edge">
<title>v11&#45;&gt;v12</title>
<path fill="none" stroke="grey" stroke-width="2" d="M309.88,-216.24C312.14,-204.91 319.2,-169.52 323.13,-149.83"/>
<polygon fill="grey" stroke="grey" stroke-width="2" points="326.62,-150.26 325.14,-139.76 319.75,-148.89 326.62,-150.26"/>
</g>
<!-- v14 -->
<g id="node19" class="node">
<title>v14</title>
<ellipse fill="none" stroke="black" stroke-width="2" cx="481.38" cy="-150.29" rx="3.5" ry="3.5"/>
<text text-anchor="middle" x="456.38" y="-156.79" font-family="sans" font-size="10.00">collectFile</text>
</g>
<!-- v13&#45;&gt;v14 -->
<g id="edge16" class="edge">
<title>v13&#45;&gt;v14</title>
<path fill="none" stroke="grey" stroke-width="2" d="M410.07,-118.19C420.08,-122.7 451.17,-136.69 468.82,-144.63"/>
<polygon fill="grey" stroke="grey" stroke-width="2" points="467.38,-147.83 477.94,-148.74 470.26,-141.44 467.38,-147.83"/>
</g>
<!-- v15 -->
<g id="node20" class="node">
<title>v15</title>
<path fill="none" stroke="#9a8761" stroke-width="2" d="M720.06,-214.41C720.06,-214.41 387.06,-214.41 387.06,-214.41 381.06,-214.41 375.06,-208.41 375.06,-202.41 375.06,-202.41 375.06,-190.41 375.06,-190.41 375.06,-184.41 381.06,-178.41 387.06,-178.41 387.06,-178.41 720.06,-178.41 720.06,-178.41 726.06,-178.41 732.06,-184.41 732.06,-190.41 732.06,-190.41 732.06,-202.41 732.06,-202.41 732.06,-208.41 726.06,-214.41 720.06,-214.41"/>
<text text-anchor="middle" x="553.56" y="-193.91" font-family="sans" font-size="10.00">NFCORE_CREATETAXDB:CREATETAXDB:CUSTOM_DUMPSOFTWAREVERSIONS</text>
</g>
<!-- v14&#45;&gt;v15 -->
<g id="edge17" class="edge">
<title>v14&#45;&gt;v15</title>
<path fill="none" stroke="grey" stroke-width="2" d="M484.49,-152.27C490.28,-155.98 503.39,-164.35 516.64,-172.82"/>
<polygon fill="grey" stroke="grey" stroke-width="2" points="514.98,-175.91 525.29,-178.35 518.75,-170.01 514.98,-175.91"/>
</g>
<!-- v17 -->
<g id="node21" class="node">
<title>v17</title>
<ellipse fill="black" stroke="black" stroke-width="2" cx="621.02" cy="-149.48" rx="1.8" ry="1.8"/>
</g>
<!-- v15&#45;&gt;v17 -->
<g id="edge18" class="edge">
<title>v15&#45;&gt;v17</title>
<path fill="none" stroke="grey" stroke-width="2" d="M579.45,-178.4C590.49,-170.72 602.71,-162.22 611.03,-156.43"/>
<polygon fill="grey" stroke="grey" stroke-width="2" points="613.26,-159.14 619.47,-150.56 609.26,-153.4 613.26,-159.14"/>
</g>
<!-- v25 -->
<g id="node22" class="node">
<title>v25</title>
<ellipse fill="none" stroke="black" stroke-width="2" cx="573.87" cy="-283.96" rx="3.5" ry="3.5"/>
<text text-anchor="middle" x="556.37" y="-290.46" font-family="sans" font-size="10.00">collect</text>
</g>
<!-- v15&#45;&gt;v25 -->
<g id="edge19" class="edge">
<title>v15&#45;&gt;v25</title>
<path fill="none" stroke="grey" stroke-width="2" d="M557.77,-214.55C561.62,-231.14 567.23,-255.32 570.71,-270.32"/>
<polygon fill="grey" stroke="grey" stroke-width="2" points="567.38,-271.45 573.05,-280.4 574.19,-269.87 567.38,-271.45"/>
</g>
<!-- v16 -->
<g id="node23" class="node">
<title>v16</title>
<ellipse fill="black" stroke="black" stroke-width="2" cx="578.49" cy="-116.34" rx="1.8" ry="1.8"/>
</g>
<!-- v15&#45;&gt;v16 -->
<g id="edge20" class="edge">
<title>v15&#45;&gt;v16</title>
<path fill="none" stroke="grey" stroke-width="2" d="M559.22,-178.24C564.01,-162.86 570.73,-141.26 574.84,-128.06"/>
<polygon fill="grey" stroke="grey" stroke-width="2" points="578.2,-129.05 577.83,-118.46 571.51,-126.97 578.2,-129.05"/>
</g>
<!-- v26 -->
<g id="node31" class="node">
<title>v26</title>
<ellipse fill="none" stroke="black" stroke-width="2" cx="594.36" cy="-369.2" rx="3.5" ry="3.5"/>
<text text-anchor="middle" x="582.86" y="-375.7" font-family="sans" font-size="10.00">mix</text>
</g>
<!-- v25&#45;&gt;v26 -->
<g id="edge28" class="edge">
<title>v25&#45;&gt;v26</title>
<path fill="none" stroke="grey" stroke-width="2" d="M574.75,-287.63C577.54,-299.24 586.29,-335.64 591.1,-355.66"/>
<polygon fill="grey" stroke="grey" stroke-width="2" points="587.76,-356.74 593.5,-365.65 594.57,-355.11 587.76,-356.74"/>
</g>
<!-- v18 -->
<g id="node24" class="node">
<title>v18</title>
<ellipse fill="black" stroke="black" stroke-width="2" cx="837.47" cy="-340.86" rx="3.6" ry="3.6"/>
<text text-anchor="middle" x="801.37" y="-347.46" font-family="sans" font-size="10.00">Channel.empty</text>
</g>
<!-- v21 -->
<g id="node25" class="node">
<title>v21</title>
<ellipse fill="none" stroke="black" stroke-width="2" cx="769.88" cy="-389.64" rx="3.5" ry="3.5"/>
<text text-anchor="middle" x="758.38" y="-396.14" font-family="sans" font-size="10.00">mix</text>
</g>
<!-- v18&#45;&gt;v21 -->
<g id="edge21" class="edge">
<title>v18&#45;&gt;v21</title>
<path fill="none" stroke="grey" stroke-width="2" d="M834.21,-343.22C824.78,-350.02 797.13,-369.97 781.32,-381.38"/>
<polygon fill="grey" stroke="grey" stroke-width="2" points="779.01,-378.73 772.95,-387.42 783.1,-384.41 779.01,-378.73"/>
<text text-anchor="middle" x="773.26" y="-365.3" font-family="sans" font-size="10.00">ch_multiqc_files</text>
</g>
<!-- v24 -->
<g id="node28" class="node">
<title>v24</title>
<ellipse fill="none" stroke="black" stroke-width="2" cx="686.09" cy="-364.53" rx="3.5" ry="3.5"/>
<text text-anchor="middle" x="674.59" y="-364.03" font-family="sans" font-size="10.00">mix</text>
</g>
<!-- v21&#45;&gt;v24 -->
<g id="edge24" class="edge">
<title>v21&#45;&gt;v24</title>
<path fill="none" stroke="grey" stroke-width="2" d="M766.28,-388.56C754.86,-385.14 719.08,-374.42 699.4,-368.52"/>
<polygon fill="grey" stroke="grey" stroke-width="2" points="700.17,-365.09 689.59,-365.58 698.16,-371.8 700.17,-365.09"/>
<text text-anchor="middle" x="698.34" y="-381.54" font-family="sans" font-size="10.00">ch_multiqc_files</text>
</g>
<!-- v19 -->
<g id="node26" class="node">
<title>v19</title>
<ellipse fill="black" stroke="black" stroke-width="2" cx="924.67" cy="-431.88" rx="3.6" ry="3.6"/>
</g>
<!-- v20 -->
<g id="node27" class="node">
<title>v20</title>
<ellipse fill="none" stroke="black" stroke-width="2" cx="844.06" cy="-427.7" rx="3.5" ry="3.5"/>
<text text-anchor="middle" x="819.06" y="-416.2" font-family="sans" font-size="10.00">collectFile</text>
</g>
<!-- v19&#45;&gt;v20 -->
<g id="edge22" class="edge">
<title>v19&#45;&gt;v20</title>
<path fill="none" stroke="grey" stroke-width="2" d="M920.79,-431.68C909.59,-431.1 876.88,-429.4 857.98,-428.42"/>
<polygon fill="grey" stroke="grey" stroke-width="2" points="857.89,-424.92 847.72,-427.89 857.53,-431.91 857.89,-424.92"/>
<text text-anchor="middle" x="838.88" y="-433.05" font-family="sans" font-size="10.00">ch_workflow_summary</text>
</g>
<!-- v20&#45;&gt;v21 -->
<g id="edge23" class="edge">
<title>v20&#45;&gt;v21</title>
<path fill="none" stroke="grey" stroke-width="2" d="M840.87,-426.07C830.95,-420.98 800.25,-405.22 782.64,-396.19"/>
<polygon fill="grey" stroke="grey" stroke-width="2" points="783.8,-392.85 773.3,-391.4 780.6,-399.08 783.8,-392.85"/>
</g>
<!-- v24&#45;&gt;v26 -->
<g id="edge27" class="edge">
<title>v24&#45;&gt;v26</title>
<path fill="none" stroke="grey" stroke-width="2" d="M682.15,-364.73C669.54,-365.37 629.74,-367.4 608.32,-368.49"/>
<polygon fill="grey" stroke="grey" stroke-width="2" points="607.99,-365 598.18,-369.01 608.35,-371.99 607.99,-365"/>
<text text-anchor="middle" x="627.99" y="-358.61" font-family="sans" font-size="10.00">ch_multiqc_files</text>
</g>
<!-- v22 -->
<g id="node29" class="node">
<title>v22</title>
<ellipse fill="black" stroke="black" stroke-width="2" cx="795.58" cy="-239.12" rx="3.6" ry="3.6"/>
</g>
<!-- v23 -->
<g id="node30" class="node">
<title>v23</title>
<ellipse fill="none" stroke="black" stroke-width="2" cx="733" cy="-296.72" rx="3.5" ry="3.5"/>
<text text-anchor="middle" x="708" y="-303.22" font-family="sans" font-size="10.00">collectFile</text>
</g>
<!-- v22&#45;&gt;v23 -->
<g id="edge25" class="edge">
<title>v22&#45;&gt;v23</title>
<path fill="none" stroke="grey" stroke-width="2" d="M792.89,-241.59C784.44,-249.36 758.15,-273.57 743.36,-287.18"/>
<polygon fill="grey" stroke="grey" stroke-width="2" points="740.6,-284.97 735.61,-294.32 745.34,-290.12 740.6,-284.97"/>
<text text-anchor="middle" x="716.12" y="-267.39" font-family="sans" font-size="10.00">ch_methods_description</text>
</g>
<!-- v23&#45;&gt;v24 -->
<g id="edge26" class="edge">
<title>v23&#45;&gt;v24</title>
<path fill="none" stroke="grey" stroke-width="2" d="M730.99,-299.63C724.72,-308.7 705.3,-336.77 694.16,-352.86"/>
<polygon fill="grey" stroke="grey" stroke-width="2" points="691.07,-351.18 688.26,-361.39 696.83,-355.16 691.07,-351.18"/>
</g>
<!-- v29 -->
<g id="node32" class="node">
<title>v29</title>
<ellipse fill="none" stroke="black" stroke-width="2" cx="521.49" cy="-429.6" rx="3.5" ry="3.5"/>
<text text-anchor="middle" x="509.99" y="-436.1" font-family="sans" font-size="10.00">mix</text>
</g>
<!-- v26&#45;&gt;v29 -->
<g id="edge29" class="edge">
<title>v26&#45;&gt;v29</title>
<path fill="none" stroke="grey" stroke-width="2" d="M591.59,-371.5C581.94,-379.49 549.45,-406.43 532.3,-420.64"/>
<polygon fill="grey" stroke="grey" stroke-width="2" points="529.73,-418.23 524.26,-427.3 534.2,-423.62 529.73,-418.23"/>
<text text-anchor="middle" x="527.45" y="-399.07" font-family="sans" font-size="10.00">ch_multiqc_files</text>
</g>
<!-- v30 -->
<g id="node34" class="node">
<title>v30</title>
<ellipse fill="none" stroke="black" stroke-width="2" cx="512.42" cy="-519.35" rx="3.5" ry="3.5"/>
<text text-anchor="middle" x="494.92" y="-525.85" font-family="sans" font-size="10.00">collect</text>
</g>
<!-- v29&#45;&gt;v30 -->
<g id="edge32" class="edge">
<title>v29&#45;&gt;v30</title>
<path fill="none" stroke="grey" stroke-width="2" d="M521.1,-433.46C519.86,-445.74 515.96,-484.37 513.83,-505.39"/>
<polygon fill="grey" stroke="grey" stroke-width="2" points="510.32,-505.3 512.8,-515.6 517.29,-506.01 510.32,-505.3"/>
<text text-anchor="middle" x="482.97" y="-472.42" font-family="sans" font-size="10.00">ch_multiqc_files</text>
</g>
<!-- v28&#45;&gt;v29 -->
<g id="edge31" class="edge">
<title>v28&#45;&gt;v29</title>
<path fill="none" stroke="grey" stroke-width="2" d="M441.43,-396.44C452.93,-401.21 489.23,-416.24 508.76,-424.32"/>
<polygon fill="grey" stroke="grey" stroke-width="2" points="507.43,-427.56 518.01,-428.15 510.11,-421.09 507.43,-427.56"/>
</g>
<!-- v30&#45;&gt;v34 -->
<g id="edge33" class="edge">
<title>v30&#45;&gt;v34</title>
<path fill="none" stroke="grey" stroke-width="2" d="M512.07,-522.99C511.07,-533.38 508.14,-563.89 505.92,-587.02"/>
<polygon fill="grey" stroke="grey" stroke-width="2" points="502.43,-586.73 504.96,-597.02 509.4,-587.4 502.43,-586.73"/>
</g>
<!-- v38 -->
<g id="node36" class="node">
<title>v38</title>
<ellipse fill="none" stroke="black" stroke-width="2" cx="595.55" cy="-648.97" rx="3.5" ry="3.5"/>
<text text-anchor="middle" x="580.05" y="-655.47" font-family="sans" font-size="10.00">toList</text>
</g>
<!-- v34&#45;&gt;v38 -->
<g id="edge37" class="edge">
<title>v34&#45;&gt;v38</title>
<path fill="none" stroke="grey" stroke-width="2" d="M552.62,-633.32C563.69,-637.35 574.5,-641.29 582.51,-644.21"/>
<polygon fill="grey" stroke="grey" stroke-width="2" points="581.34,-647.51 591.93,-647.65 583.74,-640.93 581.34,-647.51"/>
</g>
<!-- v37 -->
<g id="node37" class="node">
<title>v37</title>
<ellipse fill="black" stroke="black" stroke-width="2" cx="441.71" cy="-592.68" rx="1.8" ry="1.8"/>
</g>
<!-- v34&#45;&gt;v37 -->
<g id="edge38" class="edge">
<title>v34&#45;&gt;v37</title>
<path fill="none" stroke="grey" stroke-width="2" d="M454.16,-597.25C453.71,-597.09 453.26,-596.93 452.83,-596.77"/>
<polygon fill="grey" stroke="grey" stroke-width="2" points="454.01,-593.47 443.41,-593.3 451.59,-600.04 454.01,-593.47"/>
</g>
<!-- v36 -->
<g id="node38" class="node">
<title>v36</title>
<ellipse fill="black" stroke="black" stroke-width="2" cx="565.73" cy="-591.81" rx="1.8" ry="1.8"/>
</g>
<!-- v34&#45;&gt;v36 -->
<g id="edge39" class="edge">
<title>v34&#45;&gt;v36</title>
<path fill="none" stroke="grey" stroke-width="2" d="M551.23,-597.26C552.26,-596.87 553.26,-596.49 554.22,-596.13"/>
<polygon fill="grey" stroke="grey" stroke-width="2" points="555.59,-599.36 563.72,-592.56 553.13,-592.8 555.59,-599.36"/>
</g>
<!-- v35 -->
<g id="node39" class="node">
<title>v35</title>
<ellipse fill="black" stroke="black" stroke-width="2" cx="546.2" cy="-652.56" rx="1.8" ry="1.8"/>
</g>
<!-- v34&#45;&gt;v35 -->
<g id="edge40" class="edge">
<title>v34&#45;&gt;v35</title>
<path fill="none" stroke="grey" stroke-width="2" d="M524.2,-633.49C528.73,-637.42 533.29,-641.37 537.08,-644.65"/>
<polygon fill="grey" stroke="grey" stroke-width="2" points="534.88,-647.38 544.73,-651.28 539.46,-642.09 534.88,-647.38"/>
</g>
<!-- v39 -->
<g id="node40" class="node">
<title>v39</title>
<ellipse fill="black" stroke="black" stroke-width="2" cx="658.15" cy="-704.18" rx="1.8" ry="1.8"/>
</g>
<!-- v38&#45;&gt;v39 -->
<g id="edge41" class="edge">
<title>v38&#45;&gt;v39</title>
<path fill="none" stroke="grey" stroke-width="2" d="M598.24,-651.34C606.91,-658.99 634.41,-683.24 648.94,-696.05"/>
<polygon fill="grey" stroke="grey" stroke-width="2" points="646.73,-698.77 656.54,-702.76 651.36,-693.52 646.73,-698.77"/>
</g>
</g>
</svg>
